<svg xmlns="http://www.w3.org/2000/svg" viewBox="0 0 110 110.1"><defs><style>.b{fill:#211613}</style></defs><path fill="#2c2d2f" d="M19.5.1a.7.7 0 0 0-1 1 60 60 0 0 1 11.6 35.6 60 60 0 0 1-11.6 35.6.7.7 0 0 0 1 1 60.3 60.3 0 0 1 71.1 0 .7.7 0 0 0 1-1 60.3 60.3 0 0 1 0-71.1.7.7 0 0 0-1-1 60 60 0 0 1-35.5 11.5A60 60 0 0 1 19.5.1z"/><path d="M0 89.3h3.5v8.3h9.3v-8.3h3.5v20.2h-3.5v-9H3.5v9H0zM18.9 89.3h14.6v3h-11v5.3h10.1v3H22.4v5.9h11.3v3H18.9zM35.9 89.3h3.7l9.3 14.9v-15h3.4v20.3h-3.8l-9.2-14.9v15h-3.4zM54.7 89.3h3.8l9.2 14.9v-15h3.5v20.3h-3.8l-9.2-14.9H58v15h-3.4zM95.2 89.3h14.6v3h-11v5.3H109v3H98.8v5.9H110v3H95.2zM84.6 98.8v3h5a5.3 5.3 0 0 1-1.9 3.7 6 6 0 0 1-4 1.5 7.2 7.2 0 0 1-4.9-2 7 7 0 0 1-2.4-5.6 7.4 7.4 0 0 1 2.2-5.4 7.2 7.2 0 0 1 5.3-2.2 7.4 7.4 0 0 1 6 3.3l.1.1 2.5-2.3h-.1a13 13 0 0 0-4-3.3 11 11 0 0 0-12.2 2.2 10.8 10.8 0 0 0 0 15.2 10.2 10.2 0 0 0 7.4 3.1h.2A9.4 9.4 0 0 0 91 107a8.8 8.8 0 0 0 1.9-3.2 14 14 0 0 0 .5-4v-.9z" class="b"/></svg>
